<svg display="none" xmlns="http://www.w3.org/2000/svg">
    <symbol id="glasses" viewBox="0 0 16 12">
        <path id="Vector"
            d="M14.5938 6.46143H9.90625C9.258 6.46143 8.71634 6.89767 8.55425 7.48613C8.39225 7.42186 8.18509 7.3845 8 7.3845C7.81491 7.3845 7.60775 7.42186 7.44575 7.48613C7.28366 6.89767 6.742 6.46143 6.09375 6.46143H1.40625C0.645719 6.46143 0 7.07161 0 7.84604V8.76912C0 10.5504 1.47216 11.9999 3.28125 11.9999H4.21875C6.02784 11.9999 7.5 10.5504 7.5 8.76912C7.5 8.51447 7.74137 8.30758 8 8.30758C8.25863 8.30758 8.5 8.51447 8.5 8.76912C8.5 10.5504 9.97216 11.9999 11.7812 11.9999H12.7188C14.5278 11.9999 16 10.5504 16 8.76912V7.84604C16 7.08253 15.3692 6.46143 14.5938 6.46143Z"/>
        <path id="Vector_2"
            d="M14.3424 1.10517C14.3413 1.10068 14.338 1.09757 14.3367 1.09317C14.3356 1.08917 14.3368 1.08523 14.3356 1.08129C14.1378 0.434492 13.5436 0 12.857 0C12.0056 0 11.3125 0.6824 11.3125 1.52074C11.3125 1.77585 11.5222 1.98228 11.7812 1.98228C12.0403 1.98228 12.25 1.77585 12.25 1.52074C12.25 1.19126 12.5224 0.923077 12.857 0.923077C13.1251 0.923077 13.3574 1.09237 13.4365 1.34428L14.4764 5.53846C14.8371 5.53846 15.1142 5.56308 15.4852 5.71403L14.3424 1.10517Z"/>
        <path id="Vector_3"
            d="M3.14301 0C2.45638 0 1.86219 0.434492 1.66444 1.08129C1.66329 1.08495 1.66444 1.08855 1.66341 1.09222C1.66226 1.09634 1.65907 1.0992 1.65804 1.10338L0.490601 5.73228C0.871132 5.57092 1.15048 5.53846 1.50569 5.53846L2.56338 1.34462C2.64229 1.09249 2.87479 0.923077 3.14304 0.923077C3.47763 0.923077 3.75001 1.19126 3.75001 1.52074C3.75001 1.77585 3.95966 1.98228 4.21876 1.98228C4.47785 1.98228 4.68751 1.77585 4.68751 1.52074C4.68751 0.6824 3.99444 0 3.14301 0Z"/>
    </symbol>

    <symbol id="graphic" viewBox="0 0 11 12">
        <path
            d="M10.5881 11.5057V2.61187C10.5881 2.33886 10.4527 2.11768 10.2856 2.11768H8.77291C8.60582 2.11768 8.47046 2.33886 8.47046 2.61187V11.5057C8.47046 11.7788 8.60582 11.9999 8.77291 11.9999H10.2856C10.4527 11.9999 10.5881 11.7788 10.5881 11.5057Z"/>
        <path
            d="M4.51762 11.9998H6.07051C6.22646 11.9998 6.35285 11.7558 6.35285 11.4543V0.545432C6.35285 0.244056 6.22646 1.70826e-09 6.07051 1.70826e-09H4.51762C4.36162 1.70826e-09 4.23523 0.244056 4.23523 0.545432V11.4543C4.23523 11.7558 4.36156 11.9998 4.51762 11.9998Z"/>
        <path
            d="M0.302508 4.23511C0.135359 4.23511 0 4.48326 0 4.7897V11.445C0 11.7515 0.135359 11.9997 0.302508 11.9997H1.81511C1.98226 11.9997 2.11762 11.7515 2.11762 11.445V4.7897C2.11762 4.48326 1.98226 4.23511 1.81511 4.23511H0.302508Z"/>
    </symbol>

    <symbol id="instagram" viewBox="0 0 12 12">
        <defs>
            <linearGradient id="gradient" gradientUnits="userSpaceOnUse" fy="90%">
                <stop offset="0" style="stop-color:#09ABE4" />
                <stop offset="1" style="stop-color:#282696" />
                <animate attributeName="fy" from="0" to="1" dur="5s"
                    repeatCount="indefinite" />
            </linearGradient>
        </defs>
        <path
            d="M11.9956 1.24981C11.922 0.535303 11.3297 0.000387059 10.61 0C7.53779 0 4.46592 0 1.39366 0.000774119C1.30966 0.000774119 1.2241 0.00696707 1.1428 0.0228365C0.462232 0.152888 0 0.715673 0 1.40812C0 2.93933 0 4.47053 0 6.00174C0 7.52985 0 9.05796 0.000774258 10.5861C0.000774258 10.6639 0.00658119 10.7421 0.0162594 10.8199C0.105299 11.4844 0.695671 11.9996 1.36734 12C4.45624 12 7.54553 12 10.6344 11.9996C10.6875 11.9996 10.7397 11.9965 10.7928 11.9907C11.4714 11.911 11.9991 11.3184 11.9991 10.6352C12.0002 7.54611 12.0002 4.45738 11.9995 1.36864C12.0002 1.32839 12.001 1.28929 11.9956 1.24981ZM6.00011 3.69332C7.27532 3.69293 8.3074 4.72328 8.30895 5.99942C8.3105 7.27478 7.27996 8.30707 6.00398 8.30784C4.72568 8.30823 3.69205 7.27517 3.6936 5.99787C3.69515 4.72599 4.72801 3.69332 6.00011 3.69332ZM10.6189 5.14053C10.6189 6.79754 10.6189 8.45492 10.6189 10.1131C10.6189 10.4251 10.4293 10.6166 10.1168 10.6166C7.55289 10.6166 4.98893 10.6166 2.42459 10.6166C2.23993 10.6166 2.05643 10.617 1.87138 10.6166C1.5822 10.6163 1.38592 10.4196 1.38592 10.1309C1.38553 8.46576 1.38592 6.80063 1.38592 5.13512C1.38592 5.11847 1.38592 5.10144 1.38592 5.0817C1.73473 5.0817 2.07927 5.0817 2.4273 5.0817C2.19425 6.02187 2.3011 6.92139 2.76139 7.77215C3.09781 8.39299 3.58017 8.87566 4.19532 9.22285C5.41013 9.90833 6.92148 9.84369 8.07822 9.05332C8.72008 8.61439 9.18154 8.03071 9.45679 7.30342C9.73049 6.57769 9.7661 5.83685 9.57486 5.08015C9.92367 5.08015 10.2674 5.08015 10.6182 5.08015C10.6189 5.10067 10.6189 5.12041 10.6189 5.14053ZM10.6189 3.22072C10.6182 3.4936 10.4173 3.69255 10.1432 3.69293C10.1397 3.69293 10.1358 3.69293 10.1339 3.69293C9.91167 3.69293 9.6879 3.69293 9.46414 3.69293C9.23651 3.69293 9.00811 3.69332 8.7797 3.69255C8.51684 3.69255 8.31244 3.49631 8.31089 3.23349C8.30779 2.77096 8.30779 2.30842 8.31089 1.84666C8.31244 1.58075 8.51606 1.38606 8.78357 1.38567C9.23884 1.38529 9.69294 1.38529 10.1474 1.38567C10.4169 1.38606 10.6186 1.58617 10.6193 1.85711C10.6197 2.31229 10.6197 2.76631 10.6189 3.22072Z"/>
    </symbol>

    <symbol id="twitter" viewBox="0 0 15 12">
        <path
            d="M15 1.42062C14.4422 1.66154 13.8478 1.82123 13.2281 1.89877C13.8656 1.524 14.3522 0.935077 14.5809 0.225231C13.9866 0.574154 13.3303 0.820616 12.6309 0.958154C12.0666 0.366462 11.2622 0 10.3847 0C8.68219 0 7.31156 1.36062 7.31156 3.02862C7.31156 3.26862 7.33219 3.49938 7.38281 3.71908C4.82625 3.59631 2.56406 2.38985 1.04437 0.552C0.779062 1.00523 0.623438 1.524 0.623438 2.08246C0.623438 3.13108 1.17188 4.06062 1.98937 4.59877C1.49531 4.58954 1.01062 4.44831 0.6 4.22585C0.6 4.23508 0.6 4.24708 0.6 4.25908C0.6 5.73046 1.66594 6.95262 3.06375 7.23415C2.81344 7.30154 2.54062 7.33385 2.2575 7.33385C2.06062 7.33385 1.86187 7.32277 1.67531 7.28215C2.07375 8.48123 3.20438 9.36277 4.54875 9.39138C3.5025 10.1972 2.17406 10.6828 0.735938 10.6828C0.48375 10.6828 0.241875 10.6717 0 10.6412C1.36219 11.5062 2.97656 12 4.7175 12C10.3762 12 13.47 7.38462 13.47 3.384C13.47 3.25015 13.4653 3.12092 13.4587 2.99262C14.0691 2.56615 14.5819 2.03354 15 1.42062Z"/>
    </symbol>

    <symbol id="vk" viewBox="0 0 22 12">
        <path
            d="M21.8039 10.7032C21.7448 10.6086 21.379 9.84878 19.6189 8.28709C17.7762 6.65178 18.0238 6.91732 20.2432 4.0897C21.5949 2.36763 22.1353 1.31598 21.9662 0.866405C21.8053 0.437859 20.8111 0.550911 20.8111 0.550911L17.5053 0.569315C17.5053 0.569315 17.2606 0.537766 17.0777 0.641616C16.9003 0.744151 16.7862 0.980772 16.7862 0.980772C16.7862 0.980772 16.2623 2.31373 15.5637 3.44688C14.091 5.83806 13.501 5.96426 13.2604 5.81572C12.7007 5.46999 12.841 4.42491 12.841 3.6835C12.841 1.36594 13.2082 0.399737 12.1246 0.149971C11.7643 0.0671537 11.5003 0.0119423 10.5803 0.00274037C9.4005 -0.00909066 8.4008 0.00668403 7.83563 0.27091C7.45885 0.447061 7.16871 0.840114 7.3461 0.862462C7.56474 0.890068 8.05977 0.989974 8.32242 1.33176C8.66207 1.77214 8.64969 2.76331 8.64969 2.76331C8.64969 2.76331 8.84496 5.49102 8.19453 5.83018C7.74763 6.06285 7.1357 5.5883 5.82248 3.41796C5.15006 2.30716 4.64127 1.07805 4.64127 1.07805C4.64127 1.07805 4.54364 0.849316 4.369 0.727062C4.15724 0.578517 3.86022 0.531193 3.86022 0.531193L0.716735 0.549597C0.716735 0.549597 0.245075 0.562743 0.0718122 0.758612C-0.0821991 0.933448 0.0594363 1.29364 0.0594363 1.29364C0.0594363 1.29364 2.52087 6.79769 5.30682 9.57272C7.86313 12.1164 10.7646 11.9494 10.7646 11.9494H12.0792C12.0792 11.9494 12.4766 11.9074 12.6787 11.6984C12.8658 11.5064 12.8589 11.1463 12.8589 11.1463C12.8589 11.1463 12.8327 9.45967 13.6523 9.21122C14.4595 8.96671 15.4963 10.8413 16.595 11.563C17.4256 12.1085 18.0568 11.9889 18.0568 11.9889L20.9953 11.9494C20.9953 11.9494 22.5327 11.8587 21.8039 10.7032Z"/>
    </symbol>

    <symbol id="search" viewBox="0 0 16 16">
        <path d="M15.8616 15.184L11.9725 11.2958C13.0157 10.0967 13.6474 8.53215 13.6474 6.82217C13.6474 3.05809 10.5851 0 6.82369 0C3.05877 0 0 3.06164 0 6.82217C0 10.5827 3.06232 13.6443 6.82369 13.6443C8.53404 13.6443 10.0989 13.0129 11.2983 11.9698L15.1874 15.8581C15.2797 15.9503 15.4039 16 15.5245 16C15.6452 16 15.7694 15.9539 15.8616 15.8581C16.0461 15.6736 16.0461 15.3685 15.8616 15.184ZM0.954535 6.82217C0.954535 3.5867 3.58749 0.957871 6.82014 0.957871C10.0563 0.957871 12.6857 3.59024 12.6857 6.82217C12.6857 10.0541 10.0563 12.69 6.82014 12.69C3.58749 12.69 0.954535 10.0576 0.954535 6.82217Z"/>
    </symbol>

    <symbol id="arrow" viewBox="0 0 5 8">
        <path d="M0.646447 6.64645C0.451185 6.84171 0.451185 7.15829 0.646447 7.35355C0.841709 7.54882 1.15829 7.54882 1.35355 7.35355L0.646447 6.64645ZM4 4L4.35355 4.35355C4.54882 4.15829 4.54882 3.84171 4.35355 3.64645L4 4ZM1.35355 0.646447C1.15829 0.451184 0.841709 0.451184 0.646447 0.646447C0.451185 0.841709 0.451185 1.15829 0.646447 1.35355L1.35355 0.646447ZM1.35355 7.35355L4.35355 4.35355L3.64645 3.64645L0.646447 6.64645L1.35355 7.35355ZM4.35355 3.64645L1.35355 0.646447L0.646447 1.35355L3.64645 4.35355L4.35355 3.64645Z"/>
    </symbol>

    <symbol id="arrow-left" viewBox="0 0 10 27">
        <path d="M9.84227 1.53905C10.14 1.07388 10.0042 0.45544 9.53905 0.157729C9.07388 -0.139983 8.45544 -0.0042274 8.15773 0.460946L9.84227 1.53905ZM1 13.5L0.157729 12.9609C-0.0525762 13.2895 -0.0525762 13.7105 0.157729 14.0391L1 13.5ZM8.15773 26.5391C8.45544 27.0042 9.07388 27.14 9.53905 26.8423C10.0042 26.5446 10.14 25.9261 9.84227 25.4609L8.15773 26.5391ZM8.15773 0.460946L0.157729 12.9609L1.84227 14.0391L9.84227 1.53905L8.15773 0.460946ZM0.157729 14.0391L8.15773 26.5391L9.84227 25.4609L1.84227 12.9609L0.157729 14.0391Z"/>
    </symbol>
    <symbol id="arrow-right" viewBox="0 0 10 27">
        <path d="M0.157728 25.4609C-0.139982 25.9261 -0.00422764 26.5446 0.460946 26.8423C0.92612 27.14 1.54456 27.0042 1.84227 26.5391L0.157728 25.4609ZM9 13.5L9.84227 14.0391C10.0526 13.7105 10.0526 13.2895 9.84227 12.9609L9 13.5ZM1.84227 0.460947C1.54456 -0.00422668 0.92612 -0.139982 0.460946 0.15773C-0.00422764 0.455441 -0.139982 1.07388 0.157728 1.53905L1.84227 0.460947ZM1.84227 26.5391L9.84227 14.0391L8.15773 12.9609L0.157728 25.4609L1.84227 26.5391ZM9.84227 12.9609L1.84227 0.460947L0.157728 1.53905L8.15773 14.0391L9.84227 12.9609Z"/>
    </symbol>
</svg>